<svg height="511pt" viewBox="0 0 511 511.99989" width="511pt" xmlns="http://www.w3.org/2000/svg"><path d="m317.960938 394.523438c-110.445313 0-199.980469-89.535157-199.980469-199.984376 0-83.089843 50.679687-154.339843 122.8125-184.539062-128.5625 8.234375-230.292969 115.09375-230.292969 245.734375 0 136.007813 110.257812 246.265625 246.265625 246.265625 130.640625 0 237.5-101.730469 245.734375-230.292969-30.199219 72.132813-101.449219 122.816407-184.539062 122.816407zm0 0" fill="#ffd89e"/><path d="m359.453125 251.085938-63.644531 46.453124 24.511718-74.882812-63.84375-46.171875h78.792969l24.183594-74.816406 24.183594 74.816406h78.792969l-63.847657 46.171875 24.511719 74.882812zm0 0" fill="#ffc15a"/><path d="m256.765625 512c-52.277344 0-102.566406-15.640625-145.429687-45.234375-4.542969-3.136719-5.683594-9.367187-2.546876-13.910156 3.136719-4.546875 9.363282-5.6875 13.910157-2.546875 39.507812 27.273437 85.867187 41.691406 134.066406 41.691406 105.597656 0 196.242187-70.074219 225.960937-167.152344-39.171874 49.625-99.339843 79.671875-164.765624 79.671875-115.785157 0-209.980469-94.195312-209.980469-209.980469 0-65.421874 30.046875-125.589843 79.671875-164.761718-97.078125 29.714844-167.152344 120.359375-167.152344 225.957031 0 48.042969 14.328125 94.277344 41.441406 133.703125 3.128906 4.550781 1.976563 10.777344-2.574218 13.90625-4.550782 3.128906-10.773438 1.976562-13.90625-2.574219-29.414063-42.777343-44.960938-92.925781-44.960938-145.035156 0-65.550781 24.738281-127.921875 69.65625-175.625 44.71875-47.488281 105.089844-75.933594 169.996094-80.0898438 4.863281-.3125002 9.261718 2.9453128 10.375 7.6992188 1.113281 4.753906-1.367188 9.621094-5.875 11.507812-70.875 29.671876-116.675782 98.488282-116.675782 175.3125 0 104.757813 85.226563 189.980469 189.980469 189.980469 76.828125 0 145.644531-45.796875 175.316407-116.671875 1.886718-4.507812 6.753906-6.988281 11.507812-5.875 4.753906 1.113282 8.007812 5.5 7.695312 10.375-4.15625 64.90625-32.597656 125.277344-80.085937 169.996094-47.699219 44.917969-110.074219 69.65625-175.625 69.65625zm0 0"/><path d="m423.09375 307.539062c-2.070312 0-4.140625-.640624-5.894531-1.921874l-57.746094-42.148438-57.75 42.148438c-3.503906 2.558593-8.261719 2.5625-11.769531.011718-3.511719-2.550781-4.980469-7.074218-3.628906-11.199218l22.242187-67.949219-57.929687-41.894531c-3.515626-2.542969-4.992188-7.058594-3.652344-11.183594 1.332031-4.125 5.175781-6.917969 9.511718-6.917969h71.515626l21.945312-67.894531c1.335938-4.125 5.175781-6.921875 9.515625-6.921875 4.335937 0 8.179687 2.796875 9.515625 6.921875l21.945312 67.894531h71.515626c4.335937 0 8.179687 2.792969 9.515624 6.917969 1.335938 4.125-.140624 8.640625-3.65625 11.183594l-57.929687 41.894531 22.242187 67.949219c1.347657 4.125-.117187 8.648437-3.628906 11.199218-1.753906 1.273438-3.816406 1.910156-5.878906 1.910156zm-63.640625-66.453124c2.066406 0 4.140625.640624 5.894531 1.925781l38.597656 28.167969-14.867187-45.414063c-1.351563-4.128906.121094-8.664063 3.644531-11.210937l38.816406-28.070313h-47.902343c-4.335938 0-8.179688-2.796875-9.515625-6.925781l-14.667969-45.378906-14.667969 45.378906c-1.335937 4.128906-5.179687 6.925781-9.515625 6.925781h-47.902343l38.816406 28.070313c3.519531 2.546874 4.996094 7.082031 3.640625 11.210937l-14.863281 45.414063 38.597656-28.167969c1.753906-1.285157 3.824218-1.925781 5.894531-1.925781zm0 0"/><path d="m82.46875 439.710938c-2.640625 0-5.207031-1.070313-7.070312-2.929688-1.867188-1.863281-2.929688-4.441406-2.929688-7.070312 0-2.632813 1.0625-5.210938 2.929688-7.070313 1.863281-1.859375 4.433593-2.929687 7.070312-2.929687 2.632812 0 5.210938 1.070312 7.070312 2.929687 1.859376 1.859375 2.929688 4.4375 2.929688 7.070313 0 2.628906-1.070312 5.207031-2.929688 7.070312-1.859374 1.859375-4.4375 2.929688-7.070312 2.929688zm0 0"/></svg>