<svg height="511pt" viewBox="-52 1 511 511.99975" width="511pt" xmlns="http://www.w3.org/2000/svg"><g fill="#ff9d6c"><path d="m227.257812 346.578125 5.941407 6.054687c25.738281 26.246094 31.980469 65.933594 15.539062 98.8125l-1.453125 2.910157c-14.714844 29.433593-44.179687 47.644531-76.417968 47.644531h-2.132813c-59.535156 0-115.5-28.429688-150.617187-76.511719-4.648438-6.371093-7.617188-10.429687-7.617188-10.429687l25.492188 13.179687c32.378906 16.738281 68.296874 25.476563 104.746093 25.476563h1.542969c27.585938 0 49.949219-22.359375 49.949219-49.945313v-1.292969c0-28.6875-23.054688-51.742187-51.488281-51.742187-21.171876 0-40.820313 0-40.820313 0v-40.476563l49.609375.007813c19.773438.003906 35.28125-16.964844 33.503906-36.65625l-.09375-1.023437c-2.019531-22.359376-24.058594-36.953126-45.246094-30.136719-36.734374 11.820312-84.664062 27.238281-84.664062 27.238281l-14.652344-48.050781 56.683594-39.347657c36.28125-25.183593 85.476562-20.335937 116.144531 11.453126l.914063.949218c16.757812 17.371094 25.992187 40.253906 25.992187 64.070313v31.253906l31.675781-31.675781c14.121094-14.121094 33.269532-22.054688 53.242188-22.054688 41.59375 0 75.324219 33.699219 75.367188 75.292969l.0625 58.90625c.007812 7.808594-2.246094 15.445313-6.496094 21.992187l-.496094.765626c-19.828125 30.5625-61.152344 38.417968-90.816406 17.265624l-.019532-.011718c22.660157 0 41.03125-18.367188 41.03125-41.027344v-34.324219c0-21.539062-18.882812-38.203125-40.257812-35.527343-9.585938 1.203124-18.28125 6.230468-24.109375 13.9375-14.835937 19.628906-38.011719 31.164062-62.617187 31.164062h-2.617188"/><path d="m315.613281 179.179688c-48.242187 0-91.632812-29.355469-109.578125-74.136719l-13.191406-32.914063 10.554688 12.527344c22.429687 26.621094 55.464843 41.984375 90.273437 41.984375h2.261719c24.984375 0 49.128906-9.007813 68.007812-25.367187l29.273438 45.425781-14.445313 11.066406c-18.125 13.886719-40.324219 21.414063-63.15625 21.414063zm0 0"/><path d="m255.402344 47.628906 37.625-37.625 37.625 37.625-37.625 37.625zm0 0"/></g><path d="m408.402344 311.570312c-.050782-47.027343-38.347656-85.285156-85.371094-85.285156-22.78125 0-44.199219 8.875-60.3125 24.984375l-14.605469 14.601563v-7.109375c.003907-26.542969-10.226562-51.765625-28.792969-71.015625l-.914062-.949219c-16.480469-17.082031-38.5625-27.769531-62.183594-30.097656-23.617187-2.332031-47.363281 3.839843-66.859375 17.375l-56.6875 39.34375c-3.566406 2.480469-5.128906 6.976562-3.863281 11.132812l14.65625 48.050781c.78125 2.5625 2.558594 4.707032 4.929688 5.945313 2.375 1.242187 5.148437 1.480469 7.695312.660156 0 0 47.929688-15.417969 84.664062-27.238281 7.171876-2.308594 14.890626-1.25 21.171876 2.90625 6.335937 4.195312 10.363281 10.976562 11.054687 18.605469l.09375 1.027343c.601563 6.691407-1.5625 13.109376-6.09375 18.066407-4.53125 4.960937-10.726563 7.691406-17.445313 7.691406h-.003906l-49.613281-.011719c-2.652344 0-5.195313 1.054688-7.070313 2.929688s-2.929687 4.417968-2.929687 7.070312v40.480469c0 5.523437 4.476563 10 10 10h40.820313c11.089843 0 21.503906 4.324219 29.324218 12.171875 7.847656 7.871094 12.164063 18.371094 12.164063 29.570312v1.292969c0 10.667969-4.152344 20.699219-11.699219 28.246094-7.542969 7.542969-17.578125 11.699219-28.246094 11.699219h-1.542968c-34.699219-.003906-69.332032-8.425782-100.15625-24.359375l-25.492188-13.183594c-4.121094-2.128906-9.167969-1.148437-12.1875 2.375-3.019531 3.523437-3.21875 8.660156-.480469 12.40625l7.617188 10.429687c36.863281 50.480469 96.191406 80.617188 158.695312 80.617188h2.128907c36.253906 0 68.964843-20.375 85.363281-53.171875l1.453125-2.910156c17.523437-35.042969 11.945312-77.050781-13.621094-106.265625 16.207031-5.734375 30.671875-16.117188 41.214844-30.066406 4.171875-5.519532 10.507812-9.183594 17.375-10.042969 7.34375-.921875 14.734375 1.359375 20.28125 6.253906 5.546875 4.898437 8.730468 11.949219 8.730468 19.347656v34.324219c0 17.109375-13.917968 31.03125-31.027343 31.03125-4.351563 0-8.191407 2.816406-9.519531 6.957031-1.324219 4.140625.1875 8.671875 3.726562 11.195313 16.589844 11.832031 36.753906 16.25 56.777344 12.441406 20.015625-3.808594 37.148437-15.316406 48.234375-32.40625l.496093-.765625c5.316407-8.1875 8.117188-17.679687 8.105469-27.445313zm-24.824219 75.460938-.5.769531c-8.089844 12.46875-20.589844 20.867188-35.195313 23.644531-6.289062 1.195313-12.589843 1.28125-18.699218.300782 13.554687-9.183594 22.480468-24.707032 22.480468-42.277344v-34.324219c0-13.132812-5.648437-25.652343-15.496093-34.339843-9.847657-8.691407-22.96875-12.734376-36.003907-11.105469-12.191406 1.527343-23.4375 8.027343-30.84375 17.828125-12.871093 17.03125-33.296874 27.195312-54.640624 27.195312h-2.617188c-5.519531 0-10 4.476563-10 10 0 5.523438 4.480469 10 10 10h2.617188c2.121093 0 4.230468-.078125 6.332031-.230468l5.046875 5.144531c22.738281 23.1875 28.261718 58.285156 13.734375 87.335937l-1.453125 2.910156c-12.988282 25.980469-38.84375 42.117188-67.472656 42.117188h-2.132813c-44.445313 0-87.105469-16.96875-119.378906-46.535156 28.875 11.980468 60.105469 18.25 91.382812 18.25h1.546875c16.011719 0 31.0625-6.234375 42.386719-17.554688 11.324219-11.324218 17.558594-26.378906 17.558594-42.390625v-1.292969c0-16.527343-6.390625-32.042968-17.996094-43.6875-11.605469-11.640624-27.050781-18.054687-43.492187-18.054687h-30.820313v-20.476563l39.609375.011719h.007812c12.222657 0 23.960938-5.175781 32.207032-14.199219 8.25-9.023437 12.347656-21.183593 11.25-33.355468l-.09375-1.027344c-1.238282-13.71875-8.503906-25.921875-19.933594-33.488281-11.375-7.527344-25.347656-9.449219-38.339844-5.265625-26.617187 8.5625-59.117187 19.019531-74.992187 24.125l-9.566407-31.367188 50.695313-35.1875c32.425781-22.503906 75.84375-18.222656 103.242187 10.179688l.914063.949218c14.957031 15.503907 23.191406 35.792969 23.191406 57.128907v31.253906c0 4.042969 2.4375 7.691406 6.171875 9.238281 3.738282 1.546875 8.039063.691406 10.898438-2.167968l31.675781-31.675782c12.335937-12.332031 28.730469-19.125 46.171875-19.125 36.007812 0 65.332031 29.296875 65.367188 65.304688l.0625 58.90625c.003906 5.886718-1.683594 11.605468-4.882813 16.535156zm0 0"/><path d="m196.753906 108.765625c12.902344 32.199219 38.757813 58.117187 70.933594 71.109375 1.226562.496094 2.492188.730469 3.742188.730469 3.953124 0 7.703124-2.363281 9.273437-6.257813 2.066406-5.121094-.40625-10.949218-5.527344-13.015625-22.601562-9.128906-41.503906-25.808593-53.488281-46.816406 21 14.289063 45.984375 22.125 71.984375 22.125h2.265625c23.542969 0 46.421875-7.304687 65.527344-20.75l18.351562 28.476563-7.128906 5.460937c-5.382812 4.125-11.230469 7.671875-17.375 10.539063-5.003906 2.335937-7.167969 8.289062-4.832031 13.292968 2.339843 5.003906 8.289062 7.167969 13.292969 4.832032 7.453124-3.480469 14.546874-7.78125 21.078124-12.785157l14.445313-11.070312c4.136719-3.164063 5.148437-8.976563 2.324219-13.355469l-29.273438-45.421875c-1.566406-2.4375-4.117187-4.070313-6.988281-4.484375-2.867187-.410156-5.773437.445312-7.964844 2.34375-17.058593 14.78125-38.886719 22.921875-61.457031 22.921875h-2.265625c-31.933594 0-62.046875-14.007813-82.625-38.425781l-10.554687-12.527344c-3.164063-3.753906-8.582032-4.65625-12.792969-2.128906-4.210938 2.527344-5.960938 7.734375-4.136719 12.292968zm0 0"/><path d="m285.960938 92.324219c1.953124 1.953125 4.511718 2.929687 7.070312 2.929687s5.117188-.976562 7.070312-2.929687l37.625-37.625c1.875-1.875 2.929688-4.421875 2.929688-7.074219 0-2.648438-1.054688-5.195312-2.929688-7.070312l-37.625-37.625c-3.90625-3.90625-10.234374-3.90625-14.140624 0l-37.628907 37.625c-1.875 1.875-2.929687 4.417968-2.929687 7.070312s1.054687 5.195312 2.929687 7.070312zm7.070312-68.183594 23.484375 23.484375-23.484375 23.484375-23.484375-23.484375zm0 0"/><path d="m308.542969 172.109375c-1.863281 1.859375-2.929688 4.429687-2.929688 7.070313 0 2.628906 1.066407 5.210937 2.929688 7.070312 1.859375 1.859375 4.4375 2.929688 7.070312 2.929688 2.628907 0 5.207031-1.070313 7.066407-2.929688 1.859374-1.859375 2.933593-4.441406 2.933593-7.070312 0-2.628907-1.070312-5.210938-2.933593-7.070313-1.859376-1.859375-4.4375-2.929687-7.066407-2.929687-2.632812 0-5.210937 1.070312-7.070312 2.929687zm0 0"/></svg>